<?xml version="1.0" encoding="utf-8"?>

<svg version="1.1" id="Ebene_1" xmlns="http://www.w3.org/2000/svg" xmlns:xlink="http://www.w3.org/1999/xlink" x="0px" y="0px"
	 viewBox="0 0 1090 344" style="enable-background:new 0 0 1090 344;" xml:space="preserve">
<style type="text/css">
	.st0{fill:#2E2E2E;}
	.st1{fill:#EE3839;}
</style>
<g>
	<g>
		<path class="st0" d="M559.2,62.7c-2.2,0.8-3.6,2.3-4.4,4.5c-0.8,2.2-1.2,5.8-1.2,10.8v97.1c0,5,0.4,8.6,1.2,10.8
			c0.8,2.2,2.3,3.7,4.4,4.5c2.2,0.8,5.6,1.3,10.3,1.6v3.9c-6-0.4-14.3-0.6-24.9-0.6c-11.2,0-19.6,0.2-25.1,0.6v-3.9
			c4.7-0.3,8.1-0.8,10.3-1.6c2.2-0.8,3.6-2.3,4.4-4.5c0.8-2.2,1.2-5.8,1.2-10.8v-105l-47.2,126.7h-3.1L435.8,69.7v103.4
			c0,5.1,0.4,8.9,1.3,11.4c0.8,2.5,2.5,4.3,5,5.4c2.5,1.1,6.3,1.8,11.6,2.1v3.9c-4.7-0.4-11.4-0.6-20-0.6c-7.8,0-13.9,0.2-18.2,0.6
			v-3.9c4.6-0.3,8-0.9,10.2-2.1c2.2-1.1,3.7-2.9,4.5-5.5c0.8-2.5,1.2-6.3,1.2-11.3V77.9c0-5-0.4-8.5-1.2-10.8
			c-0.8-2.2-2.3-3.7-4.4-4.5c-2.2-0.8-5.6-1.3-10.3-1.6v-3.9c4.3,0.4,10.4,0.6,18.2,0.6c6.8,0,12.3-0.2,16.6-0.6l43.1,113.4
			l42.1-112.8h9.2c10.6,0,18.9-0.2,24.9-0.6v3.9C564.8,61.4,561.4,61.9,559.2,62.7z"/>
		<path class="st0" d="M706,61.1c-4.6,0.3-8,0.9-10.2,2.1c-2.2,1.1-3.7,2.9-4.5,5.5c-0.8,2.5-1.2,6.3-1.2,11.3v58.9
			c0,9.4-0.6,17.5-1.9,24.2c-1.2,6.7-3.3,12.5-6.2,17.3c-3.3,5.6-8.1,10.1-14.4,13.3c-6.3,3.3-13.5,4.9-21.4,4.9
			c-14.4,0-25.3-3.5-32.9-10.6c-5.7-5.4-9.6-11.4-11.6-18.2c-2-6.8-2.9-16.9-2.9-30.4V77.9c0-5-0.4-8.5-1.2-10.8
			c-0.8-2.2-2.3-3.7-4.4-4.5c-2.2-0.8-5.6-1.3-10.3-1.6v-3.9c5.5,0.4,13.8,0.6,25.1,0.6c10.6,0,18.9-0.2,24.9-0.6v3.9
			c-4.7,0.3-8.1,0.8-10.3,1.6c-2.2,0.8-3.6,2.3-4.4,4.5c-0.8,2.2-1.2,5.8-1.2,10.8v64.8c0,10.4,0.7,19.1,2.2,26
			c1.4,6.9,4.4,12.5,8.9,16.6c4.5,4.2,11.1,6.3,19.9,6.3c13.8,0,23.6-4.4,29.2-13.3c5.6-8.9,8.4-21.3,8.4-37.4V79.9
			c0-7-1.3-11.9-3.8-14.5c-2.5-2.6-7.2-4-14-4.3v-3.9c4.7,0.4,11.4,0.6,20,0.6c7.8,0,13.9-0.2,18.2-0.6V61.1z M633.8,25.4
			c2.3,2.3,3.4,4.9,3.4,7.9c0,3.1-1.1,5.8-3.4,8c-2.3,2.2-4.9,3.3-7.9,3.3c-3.1,0-5.8-1.1-8-3.3c-2.2-2.2-3.3-4.9-3.3-8
			c0-3,1.1-5.6,3.3-7.9c2.2-2.3,4.9-3.4,8-3.4C628.9,21.9,631.6,23.1,633.8,25.4z M675.4,25.4c2.3,2.3,3.4,4.9,3.4,7.9
			c0,3.1-1.1,5.8-3.4,8c-2.3,2.2-4.9,3.3-7.9,3.3c-3.1,0-5.8-1.1-8-3.3c-2.2-2.2-3.3-4.9-3.3-8c0-3,1.1-5.6,3.3-7.9
			c2.2-2.3,4.9-3.4,8-3.4C670.4,21.9,673.1,23.1,675.4,25.4z"/>
		<path class="st0" d="M802.8,57.8c5.5,2.2,10.8,5.4,16.1,9.4c1.4,1.2,2.7,1.8,3.7,1.8c2.6,0,4.3-3.9,5.1-11.8h4.5
			c-0.5,8.5-0.8,23.5-0.8,45h-4.5c-1.4-8.5-2.7-14.6-3.9-18.3c-1.2-3.7-3.1-7.3-5.9-10.7c-3.9-5.1-8.9-8.9-15-11.5
			c-6.1-2.5-12.6-3.8-19.7-3.8c-8.5,0-15.9,2.8-22.2,8.4c-6.3,5.6-11.3,13.6-14.8,24c-3.5,10.4-5.3,22.6-5.3,36.5
			c0,14.2,1.9,26.4,5.7,36.6c3.8,10.2,9,17.9,15.8,23.2c6.7,5.3,14.3,7.9,22.8,7.9c6.5,0,12.9-1.2,19-3.7c6.1-2.5,11-6.2,14.5-11.2
			c2.6-3.7,4.5-7.6,5.7-11.7c1.2-4.2,2.3-10.6,3.3-19.2h4.5c0,22.5,0.3,38.1,0.8,47h-4.5c-0.4-4.2-0.9-7.1-1.7-8.9
			c-0.7-1.8-1.7-2.6-3-2.6c-1,0-2.4,0.5-4.1,1.6c-5.9,4.2-11.5,7.3-16.8,9.5c-5.4,2.2-11.8,3.2-19.4,3.2c-12.4,0-23.3-2.8-32.6-8.4
			c-9.3-5.6-16.6-13.7-21.7-24.4c-5.2-10.6-7.7-23.3-7.7-38.1c0-14.4,2.6-27.1,7.9-38.2c5.3-11.1,12.7-19.7,22.1-25.9
			c9.5-6.1,20.2-9.2,32.2-9.2C790.6,54.4,797.3,55.5,802.8,57.8z"/>
		<path class="st0" d="M963,187.7c2.7,1.9,6,3.3,9.9,4.2v3.9c-6.3-0.4-14.1-0.6-23.5-0.6c-7.1,0-13.8,0.2-20.2,0.6v-3.9
			c3.1-0.1,5.4-0.5,6.9-1.2c1.4-0.7,2.2-1.6,2.2-2.9c0-1.3-0.7-2.9-2-4.7L907.7,140c-3.8-5.7-7-9.5-9.6-11.3c-2.6-1.8-6.3-2.8-11-3
			v49.4c0,5,0.4,8.6,1.2,10.8c0.8,2.2,2.3,3.7,4.4,4.5c2.2,0.8,5.6,1.3,10.3,1.6v3.9c-6-0.4-14.3-0.6-24.9-0.6
			c-11.2,0-19.6,0.2-25.1,0.6v-3.9c4.7-0.3,8.1-0.8,10.3-1.6c2.2-0.8,3.6-2.3,4.4-4.5c0.8-2.2,1.2-5.8,1.2-10.8V77.9
			c0-5-0.4-8.5-1.2-10.8c-0.8-2.2-2.3-3.7-4.4-4.5c-2.2-0.8-5.6-1.3-10.3-1.6v-3.9c5.5,0.4,13.8,0.6,25.1,0.6
			c10.4,0,18.7-0.2,24.9-0.6v3.9c-4.7,0.3-8.1,0.8-10.3,1.6c-2.2,0.8-3.6,2.3-4.4,4.5c-0.8,2.2-1.2,5.8-1.2,10.8v43.9
			c9.5-0.4,17-4,22.3-11l18.8-23.9c6.7-8.2,10-14.5,10-18.8c0-4.6-4-6.9-12.1-7v-3.9c7.4,0.4,14.9,0.6,22.5,0.6
			c7.2,0,12.7-0.2,16.6-0.6v3.9c-4.3,0.7-8.4,2.1-12.1,4.2c-3.8,2.2-7.4,5.5-11,10.1l-31.9,40.9l45.4,63.6
			C957.9,183.2,960.4,185.8,963,187.7z"/>
		<path class="st0" d="M1083,195.8c-8.9-0.4-23.8-0.6-44.8-0.6c-25.1,0-44,0.2-56.8,0.6v-3.9c4.7-0.3,8.1-0.8,10.3-1.6
			c2.2-0.8,3.6-2.3,4.4-4.5c0.8-2.2,1.2-5.8,1.2-10.8V77.9c0-5-0.4-8.5-1.2-10.8c-0.8-2.2-2.3-3.7-4.4-4.5
			c-2.2-0.8-5.6-1.3-10.3-1.6v-3.9c12.8,0.4,31.7,0.6,56.8,0.6c19.2,0,32.8-0.2,40.9-0.6c-0.9,8.6-1.4,16.3-1.4,23.1
			c0,5.1,0.2,9.1,0.6,12.1h-4.5c-0.9-8.5-2.1-14.8-3.5-18.9c-1.4-4.1-3.9-7.1-7.2-9c-3.4-1.9-8.6-2.8-15.5-2.8h-16.3
			c-4.7,0-8.1,0.4-10.3,1.1c-2.2,0.7-3.6,2.2-4.4,4.4c-0.8,2.2-1.2,5.8-1.2,10.8v46.2h12.9c4.6,0,8.1-1.1,10.6-3.2
			c2.5-2.2,4.1-4.7,5-7.6c0.8-2.9,1.5-6.6,2.1-11.1l0.6-3.9h4.5c-0.4,5.5-0.6,11.6-0.6,18.4v9.4c0,6.7,0.4,15.9,1.2,27.8h-4.5
			c-0.1-0.9-0.5-4.1-1.2-9.5c-0.7-5.4-2.4-9.5-5.4-12.2c-2.9-2.7-7-4.1-12.2-4.1h-12.9v47c0,5,0.4,8.6,1.2,10.8
			c0.8,2.2,2.3,3.7,4.4,4.4c2.2,0.7,5.6,1.1,10.3,1.1h14.3c8.1,0,14.3-1.1,18.5-3.2c4.2-2.2,7.3-5.6,9.3-10.4
			c2-4.8,3.4-11.8,4.3-21.1h4.5c-0.4,3.5-0.6,8.2-0.6,14.1C1081.6,178.2,1082.1,186.6,1083,195.8z"/>
	</g>
	<g>
		<path class="st0" d="M421.4,285.3v-51.5c0-1.2,0.6-1.8,1.8-1.8s1.8,0.6,1.8,1.8v49.7h27.3c1.2,0,1.8,0.6,1.8,1.8s-0.6,1.8-1.8,1.8
			h-29.1C422,287.2,421.4,286.6,421.4,285.3z"/>
		<path class="st0" d="M500.6,285.3c0,1.2-0.6,1.8-1.8,1.8h-33.1c-1.2,0-1.8-0.6-1.8-1.8v-51.5c0-1.2,0.6-1.8,1.8-1.8h33.1
			c1.2,0,1.8,0.6,1.8,1.8s-0.6,1.8-1.8,1.8h-31.3v21.7h21c1.2,0,1.8,0.6,1.8,1.8s-0.6,1.8-1.8,1.8h-21v22.5h31.3
			C500,283.5,500.6,284.1,500.6,285.3z"/>
		<path class="st0" d="M513.1,283c-2.8-2.8-4.2-7.3-4.2-13.5v-19.8c0-6.2,1.4-10.7,4.2-13.5c2.8-2.8,7.3-4.2,13.4-4.2h10.6
			c5.3,0,9.3,1.1,11.8,3.3c2.5,2.2,3.9,5.8,4.1,10.7v0.3c0,1.1-0.6,1.7-1.7,1.7c-1.2,0-1.8-0.6-1.9-1.8c-0.2-3.9-1.2-6.6-3-8.2
			c-1.8-1.5-4.9-2.3-9.2-2.3h-10.6c-3.5,0-6.2,0.5-8.2,1.4c-2,0.9-3.5,2.4-4.4,4.4c-0.9,2-1.4,4.8-1.4,8.3v19.8
			c0,5.1,1.1,8.7,3.2,10.9c2.1,2.1,5.7,3.2,10.9,3.2h10.5c3.1,0,5.6-0.4,7.4-1.1c1.8-0.8,3-2,3.8-3.8c0.8-1.8,1.1-4.2,1.1-7.4v-5.9
			l-10.5-0.1c-1.2,0-1.8-0.6-1.8-1.8c0-1.2,0.6-1.8,1.8-1.8l12.3,0.1c1.2,0,1.8,0.6,1.8,1.8v7.8c0,5.6-1.3,9.7-3.7,12.2
			c-2.5,2.5-6.6,3.7-12.2,3.7h-10.5C520.4,287.2,516,285.8,513.1,283z"/>
		<path class="st0" d="M609.5,285.5c0,0.6-0.4,1.1-1.2,1.5c-0.3,0.1-0.6,0.2-0.9,0.2c-0.6,0-1.1-0.4-1.5-1.1l-6.2-14.6
			c-0.2,0.1-0.5,0.1-0.9,0.1h-27.5c-0.3,0-0.5,0-0.6-0.1l-6.3,14.6c-0.3,0.8-0.9,1.1-1.6,1.1c-0.1,0-0.4-0.1-0.9-0.2
			c-0.8-0.3-1.1-0.9-1.1-1.6c0-0.1,0.1-0.4,0.2-0.9l21.9-51.2c0.3-0.9,1-1.4,2.1-1.4h0.3c1,0,1.7,0.5,2.1,1.4l21.8,51.2
			C609.4,284.9,609.5,285.2,609.5,285.5z M572.3,267.9h25.8l-12.8-30.2L572.3,267.9z"/>
		<path class="st0" d="M619.1,285.3v-51.5c0-1.2,0.6-1.8,1.8-1.8c1.2,0,1.8,0.6,1.8,1.8v49.7H650c1.2,0,1.8,0.6,1.8,1.8
			s-0.6,1.8-1.8,1.8h-29.1C619.7,287.2,619.1,286.6,619.1,285.3z"/>
		<path class="st0" d="M678.3,298c-0.3-0.4-0.4-1-0.2-1.7l17.9-69.6c0.2-0.9,0.8-1.4,1.7-1.4c1.5,0,2.1,0.8,1.8,2.4l-18,69.6
			c-0.2,0.9-0.8,1.4-1.7,1.4C679.2,298.7,678.6,298.5,678.3,298z"/>
		<path class="st0" d="M746.7,286.7c-0.3-0.4-0.5-0.8-0.5-1.3v-49.9h-19.1c-0.5,0-1-0.2-1.3-0.5c-0.4-0.3-0.5-0.8-0.5-1.3
			c0-0.5,0.2-1,0.5-1.3c0.3-0.4,0.8-0.5,1.3-0.5H769c0.5,0,1,0.2,1.3,0.5c0.3,0.3,0.5,0.8,0.5,1.3c0,0.5-0.2,1-0.5,1.3
			s-0.8,0.5-1.3,0.5h-19.1v49.9c0,0.5-0.2,1-0.5,1.3c-0.3,0.3-0.8,0.5-1.3,0.5C747.5,287.3,747.1,287.1,746.7,286.7z"/>
		<path class="st0" d="M815.5,285.5c0,0.6-0.4,1.1-1.2,1.5c-0.3,0.1-0.6,0.2-0.9,0.2c-0.6,0-1.1-0.4-1.5-1.1l-6.2-14.6
			c-0.2,0.1-0.5,0.1-0.9,0.1h-27.5c-0.3,0-0.5,0-0.6-0.1l-6.3,14.6c-0.3,0.8-0.9,1.1-1.6,1.1c-0.1,0-0.4-0.1-0.9-0.2
			c-0.8-0.3-1.1-0.9-1.1-1.6c0-0.1,0.1-0.4,0.2-0.9l21.9-51.2c0.3-0.9,1-1.4,2.1-1.4h0.3c1,0,1.7,0.5,2.1,1.4l21.8,51.2
			C815.4,284.9,815.5,285.2,815.5,285.5z M778.3,267.9h25.8l-12.8-30.2L778.3,267.9z"/>
		<path class="st0" d="M820.1,285.3c0-0.4,0.1-0.8,0.4-1l18.1-26.3l-16.5-23c-0.3-0.4-0.4-0.8-0.4-1.1c0-0.5,0.3-1,0.9-1.4
			c0.4-0.3,0.8-0.4,1.1-0.4c0.6,0,1.1,0.3,1.5,0.9l15.9,22.2l16.6-22.3c0.5-0.5,0.9-0.8,1.4-0.8c0.3,0,0.8,0.1,1.2,0.4
			c0.5,0.4,0.8,0.8,0.8,1.3c0,0.3-0.1,0.8-0.4,1.2l-17.2,23.4l18.6,25.9c0.3,0.4,0.4,0.8,0.4,1.1c0,0.5-0.3,1-0.9,1.4
			c-0.4,0.3-0.8,0.4-1.1,0.4c-0.5,0-1-0.3-1.4-0.9l-18.1-25.2l-17.3,25.1c-0.5,0.6-0.9,1-1.4,1c-0.3,0-0.7-0.1-1.1-0.4
			C820.4,286.3,820.1,285.8,820.1,285.3z"/>
	</g>
</g>
<g>
	<g>
		<path class="st1" d="M163.9,47.6l1.8,3.7c-4.6,0-7.7,9.2-9.3,27.7v120.1c0,33.2-4.3,49.9-12.8,49.9c-4.9,3.6-7.4,6.7-7.4,9.3
			c11,15,16.5,26.6,16.5,34.9v3.7h-1.8c-0.8-3.2-19.9-21-57.2-53.6C73.8,226.2,64,202.8,64,173.1l-11.1-5.4
			c-4.3,2.5-9.2,3.7-14.7,3.7c5.7-11.1,12.5-16.7,20.4-16.7h9.1V151c0-16.5,9.9-28.2,29.7-35.1v1.9c-6.2,7.6-9.3,19.3-9.3,35.1v33.2
			c0,20.8,11.7,37.5,35.1,49.9h1.9c6.1-1.6,9.1-5.9,9.1-12.8V117.8c0-11.1-4.3-16.7-13-16.7c-3.7,1.3-8.7,1.9-14.7,1.9
			c4.8-11.1,12.8-16.7,24.1-16.7h5.6V79C136.1,66.6,145.4,56.1,163.9,47.6z M93.6,130.6h3.7l1.8,22.3v27.7l-1.8,22.1h-3.7
			c-1.3-12.3-1.9-21.5-1.9-27.7v-16.7C91.7,152.3,92.3,143.1,93.6,130.6z"/>
	</g>
	<g>
		<path class="st1" d="M184.5,47.2h1.8c18.1,7.1,27.2,19.8,27.2,37.9h9c6.7,0,12.7,4.3,18.1,12.8v3.5l-18.1-1.8h-1.8
			c-3.4,0-5.8,6-7.2,18.1c0.9,10.9,2.7,16.3,5.3,16.3c0-12.1,1.2-18.1,3.7-18.1h1.8c0,30.1,4.9,48.8,14.6,56
			c0-1.3,7.3-15.7,21.8-43.4c-3.6-6.9-5.4-12.9-5.4-18.1c18,7.3,27,19.3,27,36.2c12.4,0,20.9,5.4,25.5,16.3v1.8
			c-1.3,0-1.9,0.6-1.9,1.8c-6-3.6-10.8-5.4-14.4-5.4c-7.6,0-11.8,4.9-12.6,14.6c1.9,7.3,6.1,10.9,12.6,10.9c4.4,0,9.2-1.8,14.4-5.4
			h1.9v1.8c-5.3,13.3-14.3,20-27.2,20c0,21.7-9.1,32.5-27.2,32.5c6.1-8.8,9.1-23.9,9.1-45.3v-21.6h-1.8
			c-13.7,28.9-21.5,43.4-23.5,43.4h-1.9l-7.2-18.1h-1.8c-1.3,16.3-1.9,28.3-1.9,36.2h-1.8c-2.5,0-3.7-1.2-3.7-3.5
			c-1.2-25.3-1.8-42.8-1.8-52.5l-3.5,1.8l1.8,3.7v1.8c0,1.2-0.6,1.8-1.8,1.8l1.8,3.7v9c0,4.3-0.6,9.8-1.8,16.3
			c0,1.2,0.6,1.8,1.8,1.8l-1.8,10.9c0.8,15.7,3.8,23.5,9,23.5c6.9-1.2,12.9-1.8,18.1-1.8c-4,10.9-10.6,16.3-19.8,16.3h-7.2
			c-4,24.1-13.6,36.2-29,36.2v-1.8c6-7.5,9-21.4,9-41.6V83.4C193.5,71.7,190.5,59.7,184.5,47.2z"/>
	</g>
</g>
<g>
	<path class="st1" d="M175.4,342.2c-16.8,0.3-34-4.1-48.2-13.1C85.9,301,47.5,262.6,19.3,221.3c-18.4-26.8-17.6-69.6,0-96.5
		C47.5,83.5,85.9,45.1,127.2,16.9c26.8-18.4,69.6-17.6,96.4,0c41.3,28.1,79.8,66.6,107.9,107.9c17.6,26.9,18.4,69.7,0,96.5
		c-28.1,41.3-66.6,79.7-107.9,107.9C209.8,338.7,191.9,342.1,175.4,342.2z M175.4,8.7c-16.3,1-28.8,4.3-43.1,12.3
		c-41.5,29.4-79.6,67.4-109,109c-17.3,24.2-16,61.9,0,86.2c29.4,41.6,67.4,79.6,109,109c12.6,8.3,28.1,12.5,43.1,12.2
		c14.8-0.2,30.8-3.5,43.1-12.2c41.6-29.4,79.6-67.4,109-109c16-24.4,17.3-62,0-86.2c-29.4-41.5-67.4-79.6-109-109
		C204.2,13,191.7,9.7,175.4,8.7z"/>
</g>
</svg>
